<svg width="32" height="32" viewBox="0 0 32 32" fill="none" xmlns="http://www.w3.org/2000/svg">
<rect width="32" height="32" rx="16" fill="#FFFFFA"/>
<path d="M15.325 12.2627C14.4827 12.4931 13.975 13.1394 13.975 13.75C13.975 14.3606 14.4827 15.0069 15.325 15.2373V12.2627Z" fill="#5EB147"/>
<path d="M16.675 16.7627V19.7373C17.5173 19.5069 18.025 18.8606 18.025 18.25C18.025 17.6394 17.5173 16.9931 16.675 16.7627Z" fill="#5EB147"/>
<path fill-rule="evenodd" clip-rule="evenodd" d="M25 16C25 20.9706 20.9706 25 16 25C11.0294 25 7 20.9706 7 16C7 11.0294 11.0294 7 16 7C20.9706 7 25 11.0294 25 16ZM16 9.925C16.3728 9.925 16.675 10.2272 16.675 10.6V10.8851C18.1424 11.1478 19.375 12.2502 19.375 13.75C19.375 14.1228 19.0728 14.425 18.7 14.425C18.3272 14.425 18.025 14.1228 18.025 13.75C18.025 13.1394 17.5173 12.4931 16.675 12.2627V15.3851C18.1424 15.6478 19.375 16.7502 19.375 18.25C19.375 19.7498 18.1424 20.8522 16.675 21.1149V21.4C16.675 21.7728 16.3728 22.075 16 22.075C15.6272 22.075 15.325 21.7728 15.325 21.4V21.1149C13.8576 20.8522 12.625 19.7498 12.625 18.25C12.625 17.8772 12.9272 17.575 13.3 17.575C13.6728 17.575 13.975 17.8772 13.975 18.25C13.975 18.8606 14.4827 19.5069 15.325 19.7373V16.6149C13.8576 16.3522 12.625 15.2498 12.625 13.75C12.625 12.2502 13.8576 11.1478 15.325 10.8851V10.6C15.325 10.2272 15.6272 9.925 16 9.925Z" fill="#5EB147"/>
</svg>
