<svg width="32" height="32" viewBox="0 0 32 32" fill="none" xmlns="http://www.w3.org/2000/svg">
<rect width="32" height="32" rx="16" fill="#FFFFFA"/>
<path d="M16 24C20.4183 24 24 20.4183 24 16C24 11.5817 20.4183 8 16 8C11.5817 8 8 11.5817 8 16C8 17.2797 8.30049 18.4893 8.83477 19.562C8.97675 19.847 9.02401 20.1729 8.94169 20.4805L8.46521 22.2613C8.25836 23.0344 8.96561 23.7416 9.73868 23.5348L11.5195 23.0583C11.8271 22.976 12.153 23.0232 12.438 23.1652C13.5107 23.6995 14.7203 24 16 24Z" fill="#5EB147"/>
<path d="M18.4 16C18.4 16.4418 18.7582 16.8 19.2 16.8C19.6418 16.8 20 16.4418 20 16C20 15.5582 19.6418 15.2 19.2 15.2C18.7582 15.2 18.4 15.5582 18.4 16Z" fill="#FFFFFA"/>
<path d="M15.2 16C15.2 16.4418 15.5582 16.8 16 16.8C16.4418 16.8 16.8 16.4418 16.8 16C16.8 15.5582 16.4418 15.2 16 15.2C15.5582 15.2 15.2 15.5582 15.2 16Z" fill="#FFFFFA"/>
<path d="M12 16C12 16.4418 12.3582 16.8 12.8 16.8C13.2418 16.8 13.6 16.4418 13.6 16C13.6 15.5582 13.2418 15.2 12.8 15.2C12.3582 15.2 12 15.5582 12 16Z" fill="#FFFFFA"/>
</svg>
