<svg width="20" height="20" viewBox="0 0 20 20" fill="none" xmlns="http://www.w3.org/2000/svg">
<path d="M7.30012 1.6665H10.5453C12.0155 1.66649 13.18 1.66648 14.0913 1.7895C15.0293 1.91611 15.7884 2.18287 16.3871 2.78397C16.9858 3.38506 17.2515 4.14727 17.3776 5.08898C17.5001 6.00401 17.5001 7.17318 17.5001 8.64929V13.5139C17.5001 14.7707 16.7335 15.8477 15.6441 16.2992C15.7002 15.5413 15.7002 14.4779 15.7001 13.5932L15.7001 9.49783L15.7001 9.41851C15.7002 8.35046 15.7002 7.4302 15.6016 6.69326C15.4958 5.90348 15.2573 5.14643 14.6457 4.53238C14.0341 3.91833 13.2801 3.67888 12.4935 3.5727C11.7595 3.47362 10.8429 3.47367 9.77912 3.47373L9.70012 3.47373H7.30012L7.22112 3.47373C6.15734 3.47367 5.24276 3.47362 4.50877 3.5727C4.94787 2.45633 6.03213 1.6665 7.30012 1.6665Z" fill="#FFFFFA"/>
<path d="M14.5 9.49799C14.5 7.22616 14.5 6.09024 13.7971 5.38448C13.0941 4.67871 11.9627 4.67871 9.7 4.67871H7.3C5.03726 4.67871 3.90589 4.67871 3.20294 5.38448C2.5 6.09024 2.5 7.22616 2.5 9.49799V13.5141C2.5 15.7859 2.5 16.9218 3.20294 17.6276C3.90589 18.3333 5.03726 18.3333 7.3 18.3333H9.7C11.9627 18.3333 13.0941 18.3333 13.7971 17.6276C14.5 16.9218 14.5 15.7859 14.5 13.5141V9.49799Z" fill="#FFFFFA"/>
</svg>
