<svg width="32" height="32" viewBox="0 0 32 32" fill="none" xmlns="http://www.w3.org/2000/svg">
<rect width="32" height="32" rx="16" fill="#FFFFFA"/>
<path d="M13.7212 13.4123L14.1939 15.1709C14.6396 16.829 14.8624 17.6581 15.5176 18.0351C16.1728 18.4122 17.0044 18.1901 18.6677 17.7458L20.4319 17.2746C22.0951 16.8303 22.9268 16.6081 23.305 15.955C23.6833 15.3019 23.4604 14.4729 23.0148 12.8148L22.5421 11.0561C22.0964 9.39803 21.8736 8.56899 21.2184 8.19191C20.5632 7.81483 19.7316 8.03697 18.0683 8.48125L16.3042 8.95249C14.6409 9.39677 13.8092 9.61891 13.431 10.272C13.0527 10.9251 13.2756 11.7542 13.7212 13.4123Z" fill="#5EB147"/>
<path d="M7.02526 10.1222C7.12702 9.7452 7.50683 9.52439 7.8736 9.62898L9.43913 10.0754C10.2817 10.3157 10.9484 10.9833 11.181 11.8486L13.1576 19.2023L13.3031 19.7185C13.8849 19.9417 14.3846 20.3599 14.7017 20.9154L14.9865 20.825L23.1373 18.6478C23.5057 18.5494 23.8819 18.7766 23.9777 19.1552C24.0734 19.5339 23.8524 19.9206 23.484 20.019L15.3634 22.1881L15.0613 22.2839C15.0551 23.4843 14.2494 24.5806 13.0302 24.9063C11.5687 25.2966 10.0665 24.432 9.67485 22.9751C9.28324 21.5182 10.1506 20.0207 11.612 19.6303C11.6845 19.6109 11.757 19.5947 11.8295 19.5814L9.85244 12.2259C9.75295 11.8557 9.46171 11.5521 9.07063 11.4406L7.5051 10.9941C7.13833 10.8895 6.9235 10.4991 7.02526 10.1222Z" fill="#5EB147"/>
</svg>
