<svg width="24" height="24" viewBox="0 0 24 24" fill="none" xmlns="http://www.w3.org/2000/svg">
<path fill-rule="evenodd" clip-rule="evenodd" d="M22 12C22 17.5228 17.5229 22 12 22C6.47719 22 2.00003 17.5228 2.00003 12C2.00003 6.47715 6.47719 2 12 2C17.5229 2 22 6.47715 22 12ZM15 9C15 10.6569 13.6569 12 12 12C10.3432 12 9.00003 10.6569 9.00003 9C9.00003 7.34315 10.3432 6 12 6C13.6569 6 15 7.34315 15 9ZM12 20.5C13.7841 20.5 15.4397 19.9504 16.807 19.0112C17.4108 18.5964 17.6689 17.8062 17.3178 17.1632C16.59 15.8303 15.0903 15 12 15C8.90972 15 7.41 15.8302 6.68218 17.1632C6.33108 17.8062 6.58914 18.5963 7.19299 19.0111C8.56022 19.9503 10.2159 20.5 12 20.5Z" fill="#5EB147"/>
</svg>
