<svg width="32" height="32" viewBox="0 0 32 32" fill="none" xmlns="http://www.w3.org/2000/svg">
<rect width="32" height="32" rx="16" fill="#FFFFFA"/>
<path d="M25 12.85C25 9.61913 22.3809 7 19.15 7C17.2754 7 15.6068 7.88407 14.5362 9.25649C19.1024 9.43302 22.75 13.1905 22.75 17.8C22.75 17.8993 22.7483 17.9982 22.745 18.0966L23.044 18.1766C23.9137 18.4093 24.7093 17.6137 24.4766 16.744L24.362 16.3156C24.2694 15.9695 24.3251 15.6038 24.4739 15.2779C24.8117 14.5384 25 13.7162 25 12.85Z" fill="#5EB147"/>
<path fill-rule="evenodd" clip-rule="evenodd" d="M21.4 17.8C21.4 21.7765 18.1765 25 14.2 25C13.088 25 12.035 24.7479 11.0948 24.2978C10.7716 24.1431 10.4055 24.0888 10.0594 24.1814L8.95601 24.4766C8.08631 24.7093 7.29066 23.9137 7.52336 23.044L7.8186 21.9406C7.9112 21.5945 7.85688 21.2284 7.70218 20.9052C7.25207 19.965 7 18.912 7 17.8C7 13.8235 10.2235 10.6 14.2 10.6C18.1765 10.6 21.4 13.8235 21.4 17.8ZM11.05 18.7C11.5471 18.7 11.95 18.2971 11.95 17.8C11.95 17.3029 11.5471 16.9 11.05 16.9C10.5529 16.9 10.15 17.3029 10.15 17.8C10.15 18.2971 10.5529 18.7 11.05 18.7ZM14.2 18.7C14.6971 18.7 15.1 18.2971 15.1 17.8C15.1 17.3029 14.6971 16.9 14.2 16.9C13.7029 16.9 13.3 17.3029 13.3 17.8C13.3 18.2971 13.7029 18.7 14.2 18.7ZM17.35 18.7C17.8471 18.7 18.25 18.2971 18.25 17.8C18.25 17.3029 17.8471 16.9 17.35 16.9C16.8529 16.9 16.45 17.3029 16.45 17.8C16.45 18.2971 16.8529 18.7 17.35 18.7Z" fill="#5EB147"/>
</svg>
