<svg width="24" height="24" viewBox="0 0 24 24" fill="none" xmlns="http://www.w3.org/2000/svg">
<path d="M10.0376 5.31617L10.6866 6.4791C11.2723 7.52858 11.0371 8.90532 10.1147 9.8278C10.1147 9.8278 10.1147 9.8278 10.1147 9.8278C10.1146 9.82792 8.99584 10.9468 11.0245 12.9755C13.0524 15.0035 14.1714 13.8861 14.1722 13.8853C14.1722 13.8853 14.1722 13.8853 14.1722 13.8853C15.0947 12.9628 16.4714 12.7277 17.5209 13.3134L18.6838 13.9624C20.2685 14.8468 20.4557 17.0692 19.0627 18.4622C18.2257 19.2992 17.2004 19.9505 16.0669 19.9934C14.1587 20.0658 10.9182 19.5829 7.66767 16.3323C4.41709 13.0817 3.93418 9.84122 4.00652 7.93309C4.04949 6.7996 4.70077 5.77423 5.53777 4.93723C6.93072 3.54428 9.15314 3.73144 10.0376 5.31617Z" fill="#C8C8C8"/>
</svg>
