<svg width="32" height="32" viewBox="0 0 32 32" fill="none" xmlns="http://www.w3.org/2000/svg">
<rect width="32" height="32" rx="16" fill="#FFFFFA"/>
<path fill-rule="evenodd" clip-rule="evenodd" d="M17.8 25H14.2C10.8059 25 9.10883 25 8.05442 23.9456C7 22.8912 7 21.1941 7 17.8V14.2C7 10.8059 7 9.10883 8.05442 8.05442C9.10883 7 10.8148 7 14.2268 7C14.7722 7 15.2093 7 15.577 7.015C15.5649 7.08693 15.5586 7.16031 15.5583 7.23451L15.55 9.78547C15.5499 10.7729 15.5498 11.6455 15.6444 12.3488C15.7469 13.1112 15.9823 13.8735 16.6044 14.4957C17.2266 15.1178 17.9888 15.3532 18.7513 15.4557C19.4546 15.5502 20.3272 15.5502 21.3146 15.5501L21.4 15.5501H24.9617C25 16.0309 25 16.6211 25 17.4066V17.8C25 21.1941 25 22.8912 23.9456 23.9456C22.8912 25 21.1941 25 17.8 25ZM9.925 18.25C9.925 17.8772 10.2272 17.575 10.6 17.575H17.8C18.1728 17.575 18.475 17.8772 18.475 18.25C18.475 18.6228 18.1728 18.925 17.8 18.925H10.6C10.2272 18.925 9.925 18.6228 9.925 18.25ZM9.925 21.4C9.925 21.0272 10.2272 20.725 10.6 20.725H15.55C15.9228 20.725 16.225 21.0272 16.225 21.4C16.225 21.7728 15.9228 22.075 15.55 22.075H10.6C10.2272 22.075 9.925 21.7728 9.925 21.4Z" fill="#5EB147"/>
<path d="M22.6165 12.055L19.0536 8.84838C18.0386 7.93481 17.531 7.47803 16.9083 7.23906L16.9 9.7001C16.9 11.8214 16.9 12.8821 17.559 13.5411C18.218 14.2001 19.2787 14.2001 21.4 14.2001H24.6221C24.2958 13.5663 23.7115 13.0405 22.6165 12.055Z" fill="#5EB147"/>
</svg>
