<svg width="40" height="40" viewBox="0 0 40 40" fill="none" xmlns="http://www.w3.org/2000/svg">
<rect width="40" height="40" rx="20" fill="#FFFFFA"/>
<path d="M25.5777 12.4315L23.5777 11.382C21.8221 10.4607 20.9443 10 20 10C19.0557 10 18.1779 10.4607 16.4223 11.382L16.1006 11.5508L25.0236 16.6497L29.0403 14.6413C28.3941 13.9095 27.3515 13.3623 25.5777 12.4315Z" fill="#5EB147"/>
<path d="M29.7484 15.9643L25.75 17.9635V21C25.75 21.4142 25.4142 21.75 25 21.75C24.5858 21.75 24.25 21.4142 24.25 21V18.7135L20.75 20.4635V29.904C21.4679 29.7252 22.2848 29.2965 23.5777 28.618L25.5777 27.5685C27.7294 26.4393 28.8052 25.8748 29.4026 24.8603C30 23.8458 30 22.5833 30 20.0585V19.9415C30 18.0489 30 16.8656 29.7484 15.9643Z" fill="#5EB147"/>
<path d="M19.25 29.904V20.4635L10.2516 15.9643C10 16.8656 10 18.0489 10 19.9415V20.0585C10 22.5833 10 23.8458 10.5974 24.8603C11.1948 25.8748 12.2706 26.4393 14.4223 27.5685L16.4223 28.618C17.7152 29.2965 18.5321 29.7252 19.25 29.904Z" fill="#5EB147"/>
<path d="M10.9597 14.6413L20 19.1615L23.4112 17.4559L14.5246 12.3778L14.4223 12.4315C12.6485 13.3623 11.6059 13.9095 10.9597 14.6413Z" fill="#5EB147"/>
</svg>
