<svg width="32" height="32" viewBox="0 0 32 32" fill="none" xmlns="http://www.w3.org/2000/svg">
<rect width="32" height="32" rx="16" fill="#5EB147"/>
<path d="M13.0041 16.008C13.0041 14.3497 14.3476 13.0051 16.0054 13.0051C17.6632 13.0051 19.0074 14.3497 19.0074 16.008C19.0074 17.6663 17.6632 19.0109 16.0054 19.0109C14.3476 19.0109 13.0041 17.6663 13.0041 16.008ZM11.3812 16.008C11.3812 18.5627 13.4515 20.6335 16.0054 20.6335C18.5593 20.6335 20.6296 18.5627 20.6296 16.008C20.6296 13.4533 18.5593 11.3825 16.0054 11.3825C13.4515 11.3825 11.3812 13.4533 11.3812 16.008ZM19.732 11.1991C19.7319 11.4129 19.7952 11.6219 19.9139 11.7997C20.0325 11.9775 20.2013 12.1161 20.3987 12.198C20.5961 12.2799 20.8134 12.3014 21.023 12.2598C21.2327 12.2182 21.4253 12.1153 21.5765 11.9642C21.7276 11.8131 21.8306 11.6205 21.8724 11.4108C21.9142 11.2012 21.8929 10.9838 21.8112 10.7863C21.7295 10.5887 21.591 10.4198 21.4134 10.301C21.2357 10.1821 21.0268 10.1187 20.8131 10.1186C20.5266 10.1187 20.2514 10.2326 20.0488 10.4352C19.8462 10.6378 19.7322 10.9125 19.732 11.1991ZM12.2927 7.05455C11.334 7.09822 10.6789 7.25028 10.1068 7.47296C9.51431 7.70291 9.01274 8.01142 8.51154 8.51197C8.01033 9.01253 7.70271 9.51503 7.47282 10.1077C7.25021 10.6803 7.09819 11.3352 7.05454 12.2942C7.01016 13.2547 7 13.5617 7 16.008C7 18.4543 7.01016 18.7613 7.05454 19.7218C7.09819 20.6808 7.25021 21.3357 7.47282 21.9083C7.70271 22.5006 8.01041 23.0037 8.51154 23.504C9.01267 24.0044 9.51431 24.3124 10.1068 24.543C10.68 24.7657 11.334 24.9178 12.2927 24.9614C13.2533 25.0051 13.5598 25.016 16.0054 25.016C18.451 25.016 18.758 25.0058 19.7181 24.9614C20.6769 24.9178 21.3316 24.7657 21.904 24.543C22.4961 24.3124 22.9981 24.0046 23.4993 23.504C24.0005 23.0035 24.3074 22.5006 24.538 21.9083C24.7606 21.3357 24.9133 20.6808 24.9563 19.7218C24.9999 18.7606 25.0101 18.4543 25.0101 16.008C25.0101 13.5617 24.9999 13.2547 24.9563 12.2942C24.9126 11.3352 24.7606 10.6799 24.538 10.1077C24.3074 9.51539 23.9997 9.01332 23.4993 8.51197C22.9988 8.01063 22.4961 7.70291 21.9047 7.47296C21.3316 7.25028 20.6768 7.0975 19.7189 7.05455C18.7587 7.01088 18.4517 7 16.0061 7C13.5605 7 13.2533 7.01016 12.2927 7.05455Z" fill="#FFFFFA"/>
<path d="M13.0041 16.0081C13.0041 14.3498 14.3476 13.0052 16.0054 13.0052C17.6632 13.0052 19.0074 14.3498 19.0074 16.0081C19.0074 17.6663 17.6632 19.011 16.0054 19.011C14.3476 19.011 13.0041 17.6663 13.0041 16.0081ZM11.3812 16.0081C11.3812 18.5628 13.4515 20.6336 16.0054 20.6336C18.5593 20.6336 20.6296 18.5628 20.6296 16.0081C20.6296 13.4534 18.5593 11.3826 16.0054 11.3826C13.4515 11.3826 11.3812 13.4534 11.3812 16.0081ZM19.732 11.1992C19.7319 11.413 19.7952 11.622 19.9139 11.7998C20.0325 11.9776 20.2012 12.1162 20.3987 12.1981C20.5961 12.28 20.8134 12.3015 21.023 12.2599C21.2327 12.2183 21.4253 12.1154 21.5764 11.9643C21.7276 11.8132 21.8306 11.6206 21.8724 11.4109C21.9142 11.2013 21.8929 10.9839 21.8112 10.7863C21.7295 10.5888 21.591 10.4199 21.4134 10.3011C21.2357 10.1822 21.0268 10.1187 20.813 10.1187C20.5266 10.1188 20.2514 10.2327 20.0488 10.4353C19.8462 10.6378 19.7322 10.9126 19.732 11.1992Z" fill="#5EB147"/>
</svg>
