<svg width="32" height="32" viewBox="0 0 32 32" fill="none" xmlns="http://www.w3.org/2000/svg">
<rect width="32" height="32" rx="16" fill="#FFFFFA"/>
<path fill-rule="evenodd" clip-rule="evenodd" d="M9.925 14.6377V12.8554C9.925 9.62156 12.6449 7 16 7C19.3551 7 22.075 9.62156 22.075 12.8554V14.6377C23.0783 14.71 23.7316 14.8923 24.2092 15.3526C25 16.1148 25 17.3416 25 19.7952C25 22.2488 25 23.4755 24.2092 24.2378C23.4184 25 22.1456 25 19.6 25H12.4C9.85442 25 8.58162 25 7.79081 24.2378C7 23.4755 7 22.2488 7 19.7952C7 17.3416 7 16.1148 7.79081 15.3526C8.26838 14.8923 8.92172 14.71 9.925 14.6377ZM11.275 12.8554C11.275 10.3402 13.3905 8.3012 16 8.3012C18.6095 8.3012 20.725 10.3402 20.725 12.8554V14.5935C20.3803 14.5904 20.0064 14.5904 19.6 14.5904H12.4C11.9936 14.5904 11.6197 14.5904 11.275 14.5935V12.8554Z" fill="#5EB147"/>
</svg>
