<svg width="32" height="32" viewBox="0 0 32 32" fill="none" xmlns="http://www.w3.org/2000/svg">
<rect width="32" height="32" rx="16" fill="#FFFFFA"/>
<path d="M16 25C20.9706 25 25 20.9706 25 16C25 15.1846 24.8916 14.3946 24.6883 13.6434C24.6116 13.3597 24.2788 13.2468 24.0125 13.3712C23.4924 13.6142 22.912 13.75 22.3 13.75C20.0632 13.75 18.25 11.9368 18.25 9.7C18.25 9.08797 18.3858 8.50764 18.6288 7.98749C18.7533 7.72118 18.6403 7.38844 18.3566 7.31167C17.6055 7.10843 16.8154 7 16 7C11.0294 7 7 11.0294 7 16C7 17.4397 7.33805 18.8005 7.93911 20.0072C8.09884 20.3279 8.15201 20.6945 8.05941 21.0406L7.52336 23.044C7.29066 23.9137 8.08631 24.7093 8.95601 24.4766L10.9594 23.9406C11.3055 23.848 11.6721 23.9012 11.9928 24.0609C13.1995 24.6619 14.5603 25 16 25Z" fill="#5EB147"/>
<circle cx="22.3001" cy="9.7" r="2.7" fill="#5EB147"/>
</svg>
