<svg width="222" height="222" viewBox="0 0 222 222" fill="none" xmlns="http://www.w3.org/2000/svg">
<g clip-path="url(#clip0_3723_1481)">
<path d="M111 199.06C160.043 199.06 199.8 159.303 199.8 110.26C199.8 61.2171 160.043 21.46 111 21.46C61.9573 21.46 22.2002 61.2171 22.2002 110.26C22.2002 159.303 61.9573 199.06 111 199.06Z" fill="#5EB147"/>
<g filter="url(#filter0_d_3723_1481)">
<rect x="65.8604" y="47.0317" width="92.1574" height="114.721" rx="11.84" fill="#FFFFFA"/>
</g>
<rect x="74" y="61.8318" width="37" height="7.252" rx="3.626" fill="#0B3C26"/>
<rect x="74" y="82.4038" width="74" height="7.252" rx="3.626" fill="#C8C8C8"/>
<rect x="74" y="102.976" width="74" height="7.252" rx="3.626" fill="#C8C8C8"/>
<rect x="74" y="123.548" width="74" height="7.252" rx="3.626" fill="#C8C8C8"/>
<rect x="74" y="144.12" width="74" height="7.252" rx="3.626" fill="#C8C8C8"/>
<g filter="url(#filter1_d_3723_1481)">
<path d="M213.231 34.3538H168.771C166.7 34.3538 165.02 36.1213 165.02 38.3016V60.2937C165.02 62.474 166.7 64.2415 168.771 64.2415H213.231C215.303 64.2415 216.982 62.474 216.982 60.2937V38.3016C216.982 36.1213 215.303 34.3538 213.231 34.3538Z" fill="#FFFFFA"/>
</g>
<path d="M176.12 54.0201C178.572 54.0201 180.56 52.0323 180.56 49.5801C180.56 47.128 178.572 45.1401 176.12 45.1401C173.668 45.1401 171.68 47.128 171.68 49.5801C171.68 52.0323 173.668 54.0201 176.12 54.0201Z" fill="#C8C8C8"/>
<rect x="186.48" y="45.1401" width="23.68" height="8.88" rx="4.44" fill="#C8C8C8"/>
<path fill-rule="evenodd" clip-rule="evenodd" d="M136.981 166.917C146.512 166.917 155.37 164.034 162.73 159.092L192.848 187.842L203.77 175.17L174.708 147.427C180.075 139.873 183.231 130.639 183.231 120.667C183.231 95.1233 162.525 74.4165 136.981 74.4165C111.438 74.4165 90.7314 95.1233 90.7314 120.667C90.7314 146.21 111.438 166.917 136.981 166.917ZM176.43 120.667C176.43 142.292 158.899 159.823 137.274 159.823C115.649 159.823 98.1184 142.292 98.1184 120.667C98.1184 99.0417 115.649 81.511 137.274 81.511C158.899 81.511 176.43 99.0417 176.43 120.667Z" fill="#C8C8C8"/>
<g filter="url(#filter2_b_3723_1481)">
<path d="M137.27 160.58C159.544 160.58 177.6 142.689 177.6 120.62C177.6 98.5509 159.544 80.6602 137.27 80.6602C114.997 80.6602 96.9404 98.5509 96.9404 120.62C96.9404 142.689 114.997 160.58 137.27 160.58Z" fill="#FFFFFA" fill-opacity="0.3"/>
</g>
<path d="M144.244 120.62L154.003 110.898C154.918 109.936 155.419 108.658 155.4 107.335C155.381 106.012 154.844 104.748 153.902 103.813C152.961 102.877 151.69 102.343 150.358 102.324C149.027 102.306 147.741 102.803 146.774 103.712L136.992 113.434L127.232 103.712C126.762 103.218 126.198 102.823 125.572 102.549C124.946 102.276 124.271 102.13 123.587 102.121C122.903 102.111 122.225 102.238 121.591 102.493C120.957 102.749 120.382 103.128 119.898 103.609C119.415 104.09 119.033 104.662 118.776 105.291C118.519 105.921 118.391 106.596 118.401 107.275C118.411 107.955 118.557 108.626 118.832 109.248C119.107 109.87 119.505 110.431 120.002 110.898L129.778 120.62L120.002 130.342C119.505 130.809 119.107 131.37 118.832 131.992C118.557 132.615 118.411 133.285 118.401 133.965C118.391 134.644 118.519 135.319 118.776 135.949C119.033 136.579 119.415 137.151 119.898 137.631C120.382 138.112 120.957 138.491 121.591 138.747C122.225 139.002 122.903 139.129 123.587 139.12C124.271 139.11 124.946 138.964 125.572 138.691C126.198 138.417 126.762 138.022 127.232 137.528L137.014 127.806L146.795 137.528C147.772 138.383 149.04 138.836 150.341 138.794C151.643 138.752 152.879 138.219 153.798 137.302C154.717 136.386 155.25 135.156 155.288 133.863C155.326 132.57 154.867 131.31 154.003 130.342L144.244 120.62Z" fill="#F40303"/>
<path d="M192.845 187.844L203.768 175.171L205.413 176.741C207.009 178.265 207.965 180.394 208.07 182.659C208.175 184.924 207.42 187.141 205.972 188.82C204.524 190.5 202.502 191.506 200.349 191.617C198.197 191.727 196.091 190.933 194.495 189.409L192.849 187.839L192.845 187.844Z" fill="#C8C8C8"/>
<path fill-rule="evenodd" clip-rule="evenodd" d="M41.6729 67.467C41.6589 66.4117 41.5266 65.3474 41.2618 64.2757C40.3333 60.515 36.1909 58.1006 31.782 57.5329C27.3748 56.9653 22.7917 58.2571 21.0253 61.5284C20.015 63.3987 19.8756 65.0108 20.2884 66.3699C20.6995 67.7217 21.675 68.8424 22.9989 69.7158C26.6901 72.1483 33.1547 72.645 36.1038 71.628C37.4678 71.1567 38.8003 70.5891 40.0981 69.9396C39.356 74.1916 36.5915 78.2198 32.902 81.8495C24.8837 89.7385 12.4408 95.7262 5.66455 97.9277C5.30048 98.0459 5.09839 98.4498 5.21162 98.8301C5.32485 99.2104 5.71156 99.4232 6.07563 99.305C12.986 97.0598 25.6711 90.9448 33.8479 82.8993C38.0722 78.7438 41.0823 74.066 41.5962 69.1481C51.1457 63.8191 58.9881 54.1507 65.6929 46.0142C65.942 45.714 65.909 45.2574 65.6198 44.9972C65.3306 44.7388 64.8951 44.7716 64.646 45.0736C58.2146 52.8771 50.7503 62.1597 41.6729 67.467ZM40.2846 68.2402C40.3368 67.054 40.2253 65.8495 39.9239 64.6341C39.1209 61.3792 35.4296 59.4543 31.613 58.963C29.2735 58.6628 26.8679 58.9103 24.9813 59.7909C23.795 60.344 22.8177 61.1463 22.2289 62.238C21.4555 63.6699 21.2883 64.8943 21.6053 65.9332C21.9223 66.9794 22.7098 67.8199 23.7358 68.4949C27.0996 70.7128 32.9856 71.1841 35.67 70.258C37.2535 69.7122 38.7899 69.0317 40.2846 68.2402Z" fill="#FFFFFA"/>
<circle cx="210.9" cy="136.16" r="4.44" fill="#FFFFFA"/>
<path fill-rule="evenodd" clip-rule="evenodd" d="M43.2048 166.792C43.9971 166.495 44.831 166.1 45.474 165.528C46.2376 164.849 46.5482 163.974 46.7568 163.054C47.0246 161.871 47.1315 160.611 47.4562 159.426C47.5765 158.986 47.8078 158.82 47.9071 158.746C48.158 158.56 48.4116 158.51 48.6503 158.529C48.9331 158.55 49.3215 158.663 49.577 159.162C49.6134 159.233 49.6608 159.342 49.6926 159.491C49.7159 159.6 49.7309 159.942 49.7555 160.083C49.817 160.43 49.8684 160.777 49.9167 161.126C50.0774 162.287 50.1699 163.273 50.6776 164.34C51.3666 165.788 52.057 166.674 52.9933 167.067C53.8986 167.446 54.981 167.375 56.364 167.077C56.4956 167.044 56.6259 167.015 56.7547 166.992C57.3645 166.879 57.9474 167.301 58.0672 167.94C58.1869 168.579 57.7994 169.201 57.1951 169.342C57.069 169.371 56.9447 169.399 56.8217 169.424C54.9528 169.911 52.7893 171.649 51.5319 173.171C51.1444 173.64 50.577 174.951 49.9982 175.788C49.5711 176.405 49.0911 176.812 48.6881 176.956C48.418 177.053 48.1903 177.038 48.0023 176.989C47.729 176.918 47.5023 176.762 47.3283 176.515C47.2336 176.379 47.1457 176.197 47.1038 175.965C47.0837 175.854 47.0815 175.57 47.0819 175.442C46.964 175.015 46.8196 174.598 46.7144 174.167C46.4635 173.139 45.9712 172.488 45.3865 171.628C44.8396 170.824 44.2522 170.318 43.391 169.915C43.279 169.886 42.3751 169.653 42.0559 169.519C41.5895 169.323 41.3673 168.995 41.2867 168.818C41.1496 168.518 41.1355 168.256 41.1628 168.037C41.2034 167.715 41.3409 167.439 41.585 167.216C41.7362 167.077 41.962 166.943 42.2644 166.877C42.498 166.826 43.1178 166.796 43.2048 166.792ZM48.5077 165.116C48.5496 165.215 48.5943 165.313 48.6416 165.413C49.6507 167.534 50.7792 168.718 52.1508 169.293L52.1968 169.312C51.2792 170.029 50.4486 170.83 49.8138 171.598C49.5524 171.914 49.2063 172.571 48.8324 173.245C48.4927 172.083 47.9371 171.262 47.2386 170.234C46.7049 169.449 46.1457 168.859 45.4585 168.378C45.9917 168.09 46.5004 167.752 46.9435 167.358C47.6812 166.702 48.1689 165.942 48.5077 165.116Z" fill="#FFFFFA"/>
</g>
<defs>
<filter id="filter0_d_3723_1481" x="43.6604" y="39.6317" width="136.557" height="159.121" filterUnits="userSpaceOnUse" color-interpolation-filters="sRGB">
<feFlood flood-opacity="0" result="BackgroundImageFix"/>
<feColorMatrix in="SourceAlpha" type="matrix" values="0 0 0 0 0 0 0 0 0 0 0 0 0 0 0 0 0 0 127 0" result="hardAlpha"/>
<feOffset dy="14.8"/>
<feGaussianBlur stdDeviation="11.1"/>
<feComposite in2="hardAlpha" operator="out"/>
<feColorMatrix type="matrix" values="0 0 0 0 0.570833 0 0 0 0 0.570833 0 0 0 0 0.570833 0 0 0 0.19 0"/>
<feBlend mode="normal" in2="BackgroundImageFix" result="effect1_dropShadow_3723_1481"/>
<feBlend mode="normal" in="SourceGraphic" in2="effect1_dropShadow_3723_1481" result="shape"/>
</filter>
<filter id="filter1_d_3723_1481" x="159.84" y="27.6938" width="71.2019" height="49.1277" filterUnits="userSpaceOnUse" color-interpolation-filters="sRGB">
<feFlood flood-opacity="0" result="BackgroundImageFix"/>
<feColorMatrix in="SourceAlpha" type="matrix" values="0 0 0 0 0 0 0 0 0 0 0 0 0 0 0 0 0 0 127 0" result="hardAlpha"/>
<feOffset dx="4.44" dy="2.96"/>
<feGaussianBlur stdDeviation="4.81"/>
<feComposite in2="hardAlpha" operator="out"/>
<feColorMatrix type="matrix" values="0 0 0 0 0.104618 0 0 0 0 0.465612 0 0 0 0 0.545833 0 0 0 0.09 0"/>
<feBlend mode="normal" in2="BackgroundImageFix" result="effect1_dropShadow_3723_1481"/>
<feBlend mode="normal" in="SourceGraphic" in2="effect1_dropShadow_3723_1481" result="shape"/>
</filter>
<filter id="filter2_b_3723_1481" x="91.0204" y="74.7402" width="92.5002" height="91.7599" filterUnits="userSpaceOnUse" color-interpolation-filters="sRGB">
<feFlood flood-opacity="0" result="BackgroundImageFix"/>
<feGaussianBlur in="BackgroundImageFix" stdDeviation="2.96"/>
<feComposite in2="SourceAlpha" operator="in" result="effect1_backgroundBlur_3723_1481"/>
<feBlend mode="normal" in="SourceGraphic" in2="effect1_backgroundBlur_3723_1481" result="shape"/>
</filter>
<clipPath id="clip0_3723_1481">
<rect width="222" height="222" fill="white"/>
</clipPath>
</defs>
</svg>
