<svg width="32" height="32" viewBox="0 0 32 32" fill="none" xmlns="http://www.w3.org/2000/svg">
<rect width="32" height="32" rx="16" fill="#FFFFFA"/>
<path d="M21.0199 9.19892L19.2199 8.24977C17.6399 7.41659 16.8498 7 16 7C15.1502 7 14.3601 7.41659 12.7801 8.24977L12.4905 8.40245L20.5212 13.0136L24.1363 11.1973C23.5547 10.5355 22.6163 10.0407 21.0199 9.19892Z" fill="#5EB147"/>
<path d="M24.7735 12.3938L21.175 14.2017V16.9477C21.175 17.3223 20.8728 17.626 20.5 17.626C20.1272 17.626 19.825 17.3223 19.825 16.9477V14.88L16.675 16.4626V25C17.3211 24.8383 18.0563 24.4506 19.2199 23.837L21.0199 22.8879C22.9564 21.8668 23.9247 21.3562 24.4623 20.4387C25 19.5213 25 18.3796 25 16.0963V15.9905C25 14.2789 25 13.2088 24.7735 12.3938Z" fill="#5EB147"/>
<path d="M15.325 25V16.4626L7.22648 12.3938C7 13.2088 7 14.2789 7 15.9905V16.0963C7 18.3796 7 19.5213 7.53766 20.4387C8.07531 21.3562 9.04356 21.8667 10.98 22.8879L12.7801 23.837C13.9437 24.4506 14.6789 24.8383 15.325 25Z" fill="#5EB147"/>
<path d="M7.86372 11.1973L16 15.2851L19.07 13.7427L11.0721 9.15038L10.9801 9.19892C9.38369 10.0407 8.44531 10.5355 7.86372 11.1973Z" fill="#5EB147"/>
</svg>
