<svg width="32" height="32" viewBox="0 0 32 32" fill="none" xmlns="http://www.w3.org/2000/svg">
<rect width="32" height="32" rx="16" fill="#FFFFFA"/>
<path d="M14.0376 9.31617L14.6866 10.4791C15.2723 11.5286 15.0372 12.9053 14.1147 13.8278C14.1147 13.8278 14.1147 13.8278 14.1147 13.8278C14.1146 13.8279 12.9959 14.9468 15.0245 16.9755C17.0525 19.0035 18.1714 17.8861 18.1722 17.8853C18.1722 17.8853 18.1722 17.8853 18.1722 17.8853C19.0947 16.9628 20.4714 16.7277 21.5209 17.3134L22.6838 17.9624C24.2686 18.8468 24.4557 21.0692 23.0628 22.4622C22.2258 23.2992 21.2004 23.9505 20.0669 23.9934C18.1588 24.0658 14.9183 23.5829 11.6677 20.3323C8.41713 17.0817 7.93421 13.8412 8.00655 11.9331C8.04952 10.7996 8.7008 9.77423 9.53781 8.93723C10.9308 7.54428 13.1532 7.73144 14.0376 9.31617Z" fill="#5EB147"/>
</svg>
