<svg width="32" height="32" viewBox="0 0 32 32" fill="none" xmlns="http://www.w3.org/2000/svg">
<rect width="32" height="32" rx="16" fill="#FFFFFA"/>
<path fill-rule="evenodd" clip-rule="evenodd" d="M25 16C25 20.9706 20.9706 25 16 25C11.0294 25 7 20.9706 7 16C7 11.0294 11.0294 7 16 7C20.9706 7 25 11.0294 25 16ZM16 12.175C15.4408 12.175 14.9875 12.6283 14.9875 13.1875C14.9875 13.5603 14.6853 13.8625 14.3125 13.8625C13.9397 13.8625 13.6375 13.5603 13.6375 13.1875C13.6375 11.8827 14.6952 10.825 16 10.825C17.3048 10.825 18.3625 11.8827 18.3625 13.1875C18.3625 13.8273 18.1073 14.4088 17.6947 14.8336C17.6116 14.919 17.5324 14.9982 17.4569 15.0737C17.2626 15.2678 17.0924 15.4378 16.9431 15.6296C16.746 15.8829 16.675 16.0691 16.675 16.225V16.9C16.675 17.2728 16.3728 17.575 16 17.575C15.6272 17.575 15.325 17.2728 15.325 16.9V16.225C15.325 15.6353 15.5995 15.158 15.8778 14.8005C16.0836 14.536 16.3424 14.2777 16.5524 14.0681C16.6157 14.0049 16.6747 13.9461 16.7263 13.8929C16.9041 13.7099 17.0125 13.462 17.0125 13.1875C17.0125 12.6283 16.5592 12.175 16 12.175ZM16 20.5C16.4971 20.5 16.9 20.0971 16.9 19.6C16.9 19.1029 16.4971 18.7 16 18.7C15.5029 18.7 15.1 19.1029 15.1 19.6C15.1 20.0971 15.5029 20.5 16 20.5Z" fill="#5EB147"/>
</svg>
