<svg width="24" height="24" viewBox="0 0 24 24" fill="none" xmlns="http://www.w3.org/2000/svg">
<path fill-rule="evenodd" clip-rule="evenodd" d="M10.4606 1.25H13.5394C15.1427 1.24999 16.3997 1.24999 17.4039 1.34547C18.4274 1.44279 19.2655 1.64457 20.0044 2.09732C20.7781 2.57144 21.4286 3.22194 21.9027 3.99563C22.3554 4.73445 22.5572 5.57256 22.6545 6.59611C22.75 7.60029 22.75 8.85725 22.75 10.4606V11.5278C22.75 12.6691 22.75 13.564 22.7007 14.2868C22.6505 15.0223 22.5468 15.6344 22.3123 16.2004C21.7287 17.6093 20.6093 18.7287 19.2004 19.3123C18.3955 19.6457 17.4786 19.7197 16.2233 19.7413C15.7842 19.7489 15.5061 19.7545 15.2941 19.7779C15.096 19.7999 15.0192 19.832 14.9742 19.8582C14.9268 19.8857 14.8622 19.936 14.7501 20.0898C14.6287 20.2564 14.4916 20.4865 14.2742 20.8539L13.7321 21.7697C12.9585 23.0767 11.0415 23.0767 10.2679 21.7697L9.72579 20.8539C9.50835 20.4865 9.37122 20.2564 9.24985 20.0898C9.13772 19.936 9.07313 19.8857 9.02572 19.8582C8.98078 19.832 8.90399 19.7999 8.70588 19.7779C8.49387 19.7545 8.21575 19.7489 7.77666 19.7413C6.52138 19.7197 5.60454 19.6457 4.79957 19.3123C3.39066 18.7287 2.27128 17.6093 1.68769 16.2004C1.45323 15.6344 1.3495 15.0223 1.29932 14.2868C1.24999 13.564 1.25 12.6691 1.25 11.5278L1.25 10.4606C1.24999 8.85726 1.24999 7.60029 1.34547 6.59611C1.44279 5.57256 1.64457 4.73445 2.09732 3.99563C2.57144 3.22194 3.22194 2.57144 3.99563 2.09732C4.73445 1.64457 5.57256 1.44279 6.59611 1.34547C7.60029 1.24999 8.85726 1.24999 10.4606 1.25Z" fill="#5EB147"/>
<path d="M11.616 12.736C11.616 12.44 11.664 12.18 11.76 11.956C11.856 11.732 11.98 11.532 12.132 11.356C12.284 11.18 12.444 11.016 12.612 10.864C12.788 10.712 12.952 10.564 13.104 10.42C13.256 10.276 13.38 10.124 13.476 9.964C13.572 9.804 13.62 9.624 13.62 9.424C13.62 9.088 13.484 8.816 13.212 8.608C12.94 8.4 12.576 8.296 12.12 8.296C11.68 8.296 11.296 8.376 10.968 8.536C10.648 8.696 10.38 8.924 10.164 9.22L9 8.464C9.336 8.008 9.776 7.652 10.32 7.396C10.864 7.132 11.508 7 12.252 7C12.836 7 13.348 7.088 13.788 7.264C14.228 7.432 14.572 7.68 14.82 8.008C15.068 8.328 15.192 8.72 15.192 9.184C15.192 9.504 15.14 9.784 15.036 10.024C14.94 10.264 14.812 10.476 14.652 10.66C14.5 10.836 14.336 11.004 14.16 11.164C13.984 11.316 13.816 11.468 13.656 11.62C13.504 11.772 13.38 11.936 13.284 12.112C13.188 12.288 13.14 12.496 13.14 12.736H11.616ZM12.384 15.604C12.104 15.604 11.872 15.512 11.688 15.328C11.512 15.144 11.424 14.924 11.424 14.668C11.424 14.412 11.512 14.196 11.688 14.02C11.872 13.836 12.104 13.744 12.384 13.744C12.664 13.744 12.892 13.836 13.068 14.02C13.244 14.196 13.332 14.412 13.332 14.668C13.332 14.924 13.244 15.144 13.068 15.328C12.892 15.512 12.664 15.604 12.384 15.604Z" fill="#FFFFFA"/>
</svg>
