<svg width="32" height="32" viewBox="0 0 32 32" fill="none" xmlns="http://www.w3.org/2000/svg">
<rect width="32" height="32" rx="16" fill="#FFFFFA"/>
<path fill-rule="evenodd" clip-rule="evenodd" d="M7 16C7 16.3728 7.29128 16.675 7.6506 16.675L17.169 16.675L15.4682 18.1875C15.1953 18.4301 15.1637 18.8562 15.3976 19.1393C15.6314 19.4223 16.0422 19.4551 16.315 19.2125L19.3511 16.5125C19.4953 16.3843 19.5783 16.197 19.5783 16C19.5783 15.803 19.4953 15.6157 19.3511 15.4875L16.315 12.7875C16.0422 12.5449 15.6314 12.5777 15.3976 12.8607C15.1637 13.1438 15.1953 13.5699 15.4682 13.8125L17.169 15.325L7.6506 15.325C7.29128 15.325 7 15.6272 7 16Z" fill="#5EB147"/>
<path d="M13.7229 13.975L14.051 13.975C13.8268 13.3148 13.939 12.5519 14.4096 11.9822C15.1112 11.133 16.3433 11.0347 17.1618 11.7625L20.1979 14.4625C20.6305 14.8473 20.8795 15.4089 20.8795 16C20.8795 16.5912 20.6305 17.1528 20.1979 17.5375L17.1618 20.2375C16.3433 20.9654 15.1112 20.867 14.4096 20.0179C13.939 19.4482 13.8268 18.6853 14.051 18.025L13.7229 18.025L13.7229 19.6C13.7229 22.1456 13.7229 23.4184 14.4851 24.2092C15.2473 25 16.4741 25 18.9277 25L19.7952 25C22.2488 25 23.4755 25 24.2378 24.2092C25 23.4184 25 22.1456 25 19.6L25 12.4C25 9.85442 25 8.58162 24.2378 7.79081C23.4755 7 22.2488 7 19.7952 7L18.9277 7C16.4741 7 15.2473 7 14.4851 7.79081C13.7229 8.58162 13.7229 9.85442 13.7229 12.4L13.7229 13.975Z" fill="#5EB147"/>
</svg>
