<svg width="32" height="32" viewBox="0 0 32 32" fill="none" xmlns="http://www.w3.org/2000/svg">
<rect width="32" height="32" rx="16" fill="#5EB147"/>
<path d="M6.16486 14.4035C6.16486 14.4035 14.5681 10.6717 17.4825 9.35766C18.5997 8.83208 22.3884 7.15007 22.3884 7.15007C22.3884 7.15007 24.1371 6.41425 23.9914 8.2013C23.9428 8.93719 23.5542 11.5127 23.1656 14.2984C22.5827 18.2405 21.9513 22.5505 21.9513 22.5505C21.9513 22.5505 21.8541 23.7595 21.0284 23.9697C20.2026 24.18 18.8425 23.2339 18.5997 23.0236C18.4054 22.866 14.9567 20.5007 13.6938 19.3443C13.3537 19.029 12.9652 18.3983 13.7423 17.6624C15.491 15.9278 17.5796 13.7728 18.8425 12.4063C19.4255 11.7755 20.0083 10.3038 17.5796 12.0908C14.1309 14.6664 10.7308 17.0842 10.7308 17.0842C10.7308 17.0842 9.95358 17.6098 8.49639 17.1367C7.03913 16.6637 5.33905 16.033 5.33905 16.033C5.33905 16.033 4.17336 15.2445 6.16486 14.4035Z" fill="#FFFFFA"/>
</svg>
