<svg width="32" height="32" viewBox="0 0 32 32" fill="none" xmlns="http://www.w3.org/2000/svg">
<rect width="32" height="32" rx="16" fill="#FFFFFA"/>
<path d="M7.77755 20.4824L6.39999 25.5999L11.574 24.2204C13.5868 25.3027 15.9234 25.6246 18.155 25.1272C20.3866 24.6297 22.3635 23.3462 23.7229 21.5123C25.0824 19.6783 25.7332 17.4168 25.5559 15.1429C25.3786 12.8689 24.3852 10.735 22.7578 9.13265C21.1305 7.53033 18.9785 6.5671 16.6966 6.41972C14.4147 6.27234 12.1561 6.95069 10.3352 8.33029C8.51429 9.70989 7.25323 11.6982 6.78343 13.9304C6.31362 16.1625 6.66659 18.4888 7.77755 20.4824Z" fill="#5EB147"/>
<path fill-rule="evenodd" clip-rule="evenodd" d="M19.5896 17.2309C19.402 17.08 19.1824 16.9738 18.9474 16.9203C18.7124 16.8669 18.4683 16.8676 18.2337 16.9225C17.8812 17.0686 17.6534 17.6204 17.4256 17.8963C17.3776 17.9624 17.307 18.0088 17.2271 18.0267C17.1472 18.0446 17.0635 18.0329 16.9917 17.9936C15.7011 17.4894 14.6193 16.5648 13.9221 15.37C13.8626 15.2954 13.8344 15.2007 13.8436 15.1059C13.8527 15.011 13.8983 14.9234 13.9709 14.8615C14.2249 14.6106 14.4115 14.2999 14.5132 13.958C14.5358 13.581 14.4492 13.2054 14.2637 12.8761C14.1204 12.4144 13.8475 12.0033 13.4773 11.6914C13.2864 11.6058 13.0748 11.577 12.8679 11.6087C12.661 11.6404 12.4677 11.7311 12.3113 11.8699C12.0398 12.1035 11.8244 12.3949 11.6808 12.7226C11.5372 13.0503 11.4691 13.4059 11.4815 13.7633C11.4824 13.964 11.5079 14.1638 11.5574 14.3584C11.6834 14.8257 11.8771 15.2722 12.1323 15.6837C12.3165 15.999 12.5175 16.3041 12.7343 16.598C13.4391 17.563 14.3251 18.3824 15.343 19.0107C15.8538 19.3299 16.3998 19.5895 16.97 19.7842C17.5625 20.0521 18.2165 20.1549 18.8628 20.0818C19.2311 20.0262 19.58 19.8812 19.8788 19.6595C20.1776 19.4378 20.4173 19.1463 20.5766 18.8105C20.6703 18.6077 20.6987 18.3809 20.658 18.1613C20.5604 17.7123 19.9584 17.4473 19.5896 17.2309Z" fill="#FFFFFA"/>
</svg>
