<svg width="16" height="16" viewBox="0 0 16 16" fill="currentColor" xmlns="http://www.w3.org/2000/svg">
<path d="M6.03756 1.31617L6.68657 2.4791C7.27227 3.52858 7.03715 4.90532 6.11468 5.8278C6.11468 5.8278 6.11468 5.8278 6.11468 5.8278C6.11456 5.82792 4.99585 6.94685 7.02448 8.97548C9.05245 11.0035 10.1714 9.8861 10.1722 9.88529C10.1722 9.88527 10.1722 9.88528 10.1722 9.88525C11.0947 8.96281 12.4714 8.7277 13.5209 9.31339L14.6838 9.96241C16.2685 10.8468 16.4557 13.0692 15.0627 14.4622C14.2257 15.2992 13.2004 15.9505 12.0669 15.9934C10.1587 16.0658 6.91825 15.5829 3.66767 12.3323C0.417097 9.08172 -0.0658159 5.84122 0.00652113 3.93309C0.0494914 2.7996 0.700772 1.77423 1.53778 0.937232C2.93072 -0.455718 5.15314 -0.268563 6.03756 1.31617Z" fill="currentColor"/>
</svg>
