<svg width="20" height="20" viewBox="0 0 20 20" fill="currentColor" xmlns="http://www.w3.org/2000/svg">
<path fill-rule="evenodd" clip-rule="evenodd" d="M0.519231 5.82274C3.05176e-05 6.77128 3.05176e-05 7.91549 3.05176e-05 10.2039V11.725C3.05176e-05 15.6258 3.05176e-05 17.5763 1.1716 18.7881C2.34318 20 4.22879 20 8.00003 20H12C15.7713 20 17.6569 20 18.8285 18.7881C20 17.5763 20 15.6258 20 11.725V10.2039C20 7.91549 20 6.77128 19.4808 5.82274C18.9616 4.87421 18.0131 4.28551 16.116 3.10812L14.116 1.86687C12.1106 0.62229 11.108 0 10 0C8.89209 0 7.88942 0.62229 5.88406 1.86687L3.88406 3.10813C1.98698 4.28551 1.03843 4.87421 0.519231 5.82274ZM7.00003 15.25C6.58582 15.25 6.25003 15.5858 6.25003 16C6.25003 16.4142 6.58582 16.75 7.00003 16.75H13C13.4142 16.75 13.75 16.4142 13.75 16C13.75 15.5858 13.4142 15.25 13 15.25H7.00003Z" fill="currentColor"/>
</svg>
