<svg width="20" height="20" viewBox="0 0 20 20" fill="currentColor" xmlns="http://www.w3.org/2000/svg">
<path fill-rule="evenodd" clip-rule="evenodd" d="M20 10C20 15.5228 15.5229 20 10 20C4.47718 20 3.05176e-05 15.5228 3.05176e-05 10C3.05176e-05 4.47715 4.47718 0 10 0C15.5229 0 20 4.47715 20 10ZM13 7C13 8.65685 11.6569 10 10 10C8.34318 10 7.00003 8.65685 7.00003 7C7.00003 5.34315 8.34318 4 10 4C11.6569 4 13 5.34315 13 7ZM10 18.5C11.7841 18.5 13.4397 17.9504 14.8069 17.0112C15.4108 16.5964 15.6689 15.8062 15.3178 15.1632C14.59 13.8303 13.0903 13 9.99997 13C6.90972 13 5.41 13.8302 4.68217 15.1632C4.33108 15.8062 4.58913 16.5963 5.19299 17.0111C6.56021 17.9503 8.21593 18.5 10 18.5Z" fill="currentColor"/>
</svg>
